name Walk10.mot
datacolumns 19
datarows 20
range 1.11100000 1.13000000
endheader

                time	   L_ground_force_vx	   L_ground_force_vy	   L_ground_force_vz	   L_ground_force_px	   L_ground_force_py	   L_ground_force_pz	   R_ground_force_vx	   R_ground_force_vy	   R_ground_force_vz	   R_ground_force_px	   R_ground_force_py	   R_ground_force_pz	   L_ground_torque_x	   L_ground_torque_y	   L_ground_torque_z	   R_ground_torque_x	   R_ground_torque_y	   R_ground_torque_z	
          1.11100000	         -5.88455989	        116.89222224	        -12.12592767	         -0.12666018	          0.00000000	          0.00125822	          0.00000000	          0.00000000	          0.00000000	          0.00000000	          0.00000000	          0.00000000	          0.00000000	          0.09806216	          0.00000000	          0.00000000	         -0.00000000	          0.00000000	
          1.11200000	         -6.75120122	        126.18769603	        -13.10026941	         -0.13402189	          0.00000000	          0.00134537	          0.00000000	          0.00000000	          0.00000000	          0.00000000	          0.00000000	          0.00000000	          0.00000000	          0.10609564	          0.00000000	          0.00000000	         -0.00000000	          0.00000000	
          1.11300000	         -7.67049337	        135.82580833	        -14.11104896	         -0.14151419	          0.00000000	          0.00143506	         -0.00000000	          0.00000000	          0.00000000	          0.00000000	          0.00000000	          0.00000000	          0.00000000	          0.11443745	          0.00000000	          0.00000000	         -0.00000000	          0.00000000	
          1.11400000	         -8.64353234	        145.79859429	        -15.15747788	         -0.14911827	          0.00000000	          0.00152716	         -0.00000000	          0.00000000	          0.00000000	          0.00000000	          0.00000000	          0.00000000	          0.00000000	          0.12308182	          0.00000000	          0.00000000	         -0.00000000	          0.00000000	
          1.11500000	         -9.67129400	        156.09596678	        -16.23854724	         -0.15681311	          0.00000000	          0.00162151	         -0.00000000	          0.00000000	          0.00000000	          0.00000000	          0.00000000	          0.00000000	          0.00000000	          0.13202115	          0.00000000	          0.00000000	         -0.00000000	          0.00000000	
          1.11600000	        -10.75461887	        166.70556080	        -17.35301128	         -0.16457538	          0.00000000	          0.00171794	         -0.00000000	          0.00000000	          0.00000000	          0.00000000	          0.00000000	          0.00000000	          0.00000000	          0.14124593	          0.00000000	          0.00000000	         -0.00000000	          0.00000000	
          1.11700000	        -11.89419615	        177.61257288	        -18.49937058	         -0.17237927	          0.00000000	          0.00181623	         -0.00000000	          0.00000000	          0.00000000	          0.00000000	          0.00000000	          0.00000000	          0.00000000	          0.15074459	          0.00000000	          0.00000000	         -0.00000000	          0.00000000	
          1.11800000	        -13.09054897	        188.79960637	        -19.67585205	         -0.18019675	          0.00000000	          0.00191615	         -0.00000000	          0.00000000	          0.00000000	          0.00000000	          0.00000000	          0.00000000	          0.00000000	          0.16050328	          0.00000000	          0.00000000	          0.00000000	          0.00000000	
          1.11900000	        -14.34402669	        200.24655217	        -20.88037968	         -0.18799869	          0.00000000	          0.00201743	         -0.00000000	          0.00000000	          0.00000000	          0.00000000	          0.00000000	          0.00000000	          0.00000000	          0.17050550	          0.00000000	          0.00000000	          0.00000000	          0.00000000	
          1.12000000	        -15.65480540	        211.93052161	        -22.11053509	         -0.19575672	          0.00000000	          0.00211977	         -0.00000000	          0.00000000	          0.00000000	          0.00000000	          0.00000000	          0.00000000	          0.00000000	          0.18073137	          0.00000000	          0.00000000	          0.00000000	          0.00000000	
          1.12100000	        -17.02289055	        223.82582070	        -23.36351647	         -0.20344448	          0.00000000	          0.00222280	         -0.00000000	          0.00000000	          0.00000000	          0.00000000	          0.00000000	          0.00000000	          0.00000000	          0.19115711	          0.00000000	          0.00000000	          0.00000000	          0.00000000	
          1.12200000	        -18.44811853	        235.90397241	        -24.63610168	         -0.21103788	          0.00000000	          0.00232612	         -0.00000000	          0.00000000	          0.00000000	          0.00000000	          0.00000000	          0.00000000	          0.00000000	          0.20175472	          0.00000000	          0.00000000	          0.00000000	          0.00000000	
          1.12300000	        -19.93016000	        248.13382691	        -25.92461506	         -0.21851508	          0.00000000	          0.00242927	         -0.00000000	          0.00000000	          0.00000000	          0.00000000	          0.00000000	          0.00000000	          0.00000000	          0.21249222	          0.00000000	          0.00000000	          0.00000000	          0.00000000	
          1.12400000	        -21.46852703	        260.48180631	        -27.22489812	         -0.22585645	          0.00000000	          0.00253176	         -0.00000000	          0.00000000	          0.00000000	          0.00000000	          0.00000000	          0.00000000	          0.00000000	          0.22333456	          0.00000000	          0.00000000	          0.00000000	          0.00000000	
          1.12500000	        -23.06258345	        272.91232108	        -28.53228694	         -0.23304447	          0.00000000	          0.00263304	         -0.00000000	          0.00000000	          0.00000000	          0.00000000	          0.00000000	          0.00000000	          0.00000000	          0.23424518	          0.00000000	          0.00000000	          0.00000000	          0.00000000	
          1.12600000	        -24.71155460	        285.38837568	        -29.84160041	         -0.24006363	          0.00000000	          0.00273256	         -0.00000000	          0.00000000	          0.00000000	          0.00000000	          0.00000000	          0.00000000	          0.00000000	          0.24518791	          0.00000000	          0.00000000	          0.00000000	          0.00000000	
          1.12700000	        -26.41453108	        297.87234547	        -31.14714500	         -0.24690038	          0.00000000	          0.00282973	         -0.00000000	          0.00000000	          0.00000000	          0.00000000	          0.00000000	          0.00000000	          0.00000000	          0.25612869	          0.00000000	          0.00000000	          0.00000000	          0.00000000	
          1.12800000	        -28.17046108	        310.32686614	        -32.44274199	         -0.25354298	          0.00000000	          0.00292395	         -0.00000000	          0.00000000	          0.00000000	          0.00000000	          0.00000000	          0.00000000	          0.00000000	          0.26703680	          0.00000000	          0.00000000	          0.00000000	          0.00000000	
          1.12900000	        -29.97812913	        322.71574412	        -33.72178088	         -0.25998140	          0.00000000	          0.00301462	         -0.00000000	          0.00000000	          0.00000000	          0.00000000	          0.00000000	          0.00000000	          0.00000000	          0.27788543	          0.00000000	          0.00000000	          0.00000000	          0.00000000	
          1.13000000	        -31.83612288	        335.00478681	        -34.97729931	         -0.26620725	          0.00000000	          0.00310110	         -0.00000000	          0.00000000	          0.00000000	          0.00000000	          0.00000000	          0.00000000	          0.00000000	          0.28865168	          0.00000000	          0.00000000	          0.00000000	          0.00000000	
